# This file uses centimeters as units for non-parametric coordinates.

mtllib flor_planes_OK_2.mtl
g default
v 0.737232 0.017510 -0.000000
v 0.737232 1.491973 -0.000000
v -0.737232 0.017510 0.000000
v -0.737232 1.491973 0.000000
v 0.000000 0.014713 0.922384
v -0.000000 1.859482 0.922384
v 0.000000 0.014713 -0.922384
v -0.000000 1.859482 -0.922384
vt 1.000000 0.000000
vt 1.000000 1.000000
vt 0.000000 0.000000
vt 0.000000 1.000000
vt 1.000000 0.000000
vt 1.000000 1.000000
vt 0.000000 1.000000
vt 0.000000 0.000000
vn 0.000000 -0.000000 1.000000
vn 0.000000 -0.000000 1.000000
vn 0.000000 -0.000000 1.000000
vn 0.000000 -0.000000 1.000000
vn -1.000000 -0.000000 0.000000
vn -1.000000 -0.000000 0.000000
vn -1.000000 -0.000000 0.000000
vn -1.000000 -0.000000 0.000000
s off
g pPlane3
usemtl initialShadingGroup
f 1/1/1 2/2/2 4/4/3 3/3/4
f 5/5/5 6/6/6 8/7/7 7/8/8
